<svg width="28" height="24" viewBox="0 0 28 24" fill="none" xmlns="http://www.w3.org/2000/svg"><path d="M19.833 20.662c0-.497-.145-.96-.394-1.346.908-.331 1.561-1.23 1.561-2.285a2.48 2.48 0 0 0-.394-1.346c.907-.332 1.56-1.232 1.56-2.286 0-.44-.114-.854-.313-1.21h3.814c1.286 0 2.333-1.086 2.333-2.421 0-1.336-1.047-2.422-2.333-2.422h-13.64l1.604-3.327A3.76 3.76 0 0 0 14 2.395C14 1.12 13 .083 11.765.083c-.597 0-1.155.241-1.577.678L2.645 8.588C.939 10.358 0 12.712 0 15.215c0 4.338 3.402 7.868 7.583 7.868H17.5c1.287 0 2.333-1.085 2.333-2.42zm-12.25 1.21c-3.538 0-6.416-2.987-6.416-6.658 0-2.18.818-4.229 2.304-5.768l7.543-7.829c.2-.208.467-.323.758-.323.585 0 1.061.494 1.061 1.101 0 .375-.085.747-.246 1.083l-2.025 4.204a.626.626 0 0 0 .025.588.58.58 0 0 0 .496.287h14.584c.642 0 1.166.542 1.166 1.21 0 .669-.524 1.211-1.166 1.211H14.583a.595.595 0 0 0-.583.605c0 .334.261.606.583.606h5.25c.643 0 1.167.542 1.167 1.21 0 .668-.524 1.21-1.167 1.21h-5.25a.595.595 0 0 0-.583.606c0 .334.261.605.583.605h4.084c.642 0 1.166.543 1.166 1.21 0 .669-.524 1.211-1.166 1.211h-4.084a.595.595 0 0 0-.583.605c0 .335.261.606.583.606H17.5c.643 0 1.167.542 1.167 1.21 0 .669-.524 1.21-1.167 1.21H7.583z" fill="#E73939"/></svg>