<svg width="14" height="13" viewBox="0 0 14 13" fill="none" xmlns="http://www.w3.org/2000/svg"><path d="M11.95 8.404a7.071 7.071 0 0 0-2.661-1.549c1.06-.677 1.758-1.812 1.758-3.097C11.047 1.686 9.23 0 7 0S2.953 1.686 2.953 3.758c0 1.282.697 2.42 1.758 3.097a7.06 7.06 0 0 0-2.66 1.55C.727 9.63 0 11.262 0 13h1.094c0-3.024 2.65-5.484 5.906-5.484 3.257 0 5.906 2.46 5.906 5.484H14c0-1.737-.727-3.37-2.05-4.596zM7 6.5c-1.63 0-2.953-1.229-2.953-2.742S5.37 1.016 7 1.016s2.953 1.229 2.953 2.742S8.63 6.5 7 6.5z" fill="#E73939"/></svg>